<svg xmlns="http://www.w3.org/2000/svg" viewBox="0 0 355.328 355.328"><path d="M55.224 128.933V17.543C55.224 7.893 63.118 0 72.766 0H306.95c9.648 0 17.542 7.894 17.542 17.542v111.39H55.224z" fill="#3E4A57"/><path d="M324.492 128.933v208.853c0 9.647-7.893 17.542-17.542 17.542H72.766c-9.65 0-17.542-7.894-17.542-17.542V128.933h269.268z" fill="#333E48"/><path d="M30.837 128.933V17.543C30.837 7.893 38.73 0 48.38 0h234.183c9.647 0 17.542 7.894 17.542 17.542v111.39H30.837z" fill="#5C6670"/><path fill="#333E48" d="M52.765 21.927h225.412v85.078H52.765z"/><path d="M300.104 128.933v208.853c0 9.647-7.896 17.542-17.542 17.542H48.38c-9.65 0-17.543-7.894-17.543-17.542V128.933h269.267z" fill="#3E4A57"/><path d="M116.207 187.698c0 4.824-3.947 8.77-8.77 8.77h-45.9c-4.826 0-8.772-3.946-8.772-8.77v-23.94c0-4.825 3.945-8.772 8.77-8.772h45.9c4.824 0 8.772 3.947 8.772 8.77V187.7zm80.983 0c0 4.824-3.946 8.77-8.77 8.77h-45.9c-4.823 0-8.77-3.946-8.77-8.77v-23.94c0-4.825 3.946-8.772 8.77-8.772h45.9c4.825 0 8.772 3.947 8.772 8.77V187.7zm80.984 0c0 4.824-3.948 8.77-8.77 8.77h-45.9c-4.824 0-8.77-3.946-8.77-8.77v-23.94c0-4.825 3.946-8.772 8.77-8.772h45.9c4.822 0 8.77 3.947 8.77 8.77V187.7zM116.207 252.51c0 4.825-3.947 8.772-8.77 8.772h-45.9c-4.826 0-8.772-3.947-8.772-8.77V228.57c0-4.824 3.945-8.77 8.77-8.77h45.9c4.824 0 8.772 3.946 8.772 8.77v23.94zm80.983 0c0 4.825-3.946 8.772-8.77 8.772h-45.9c-4.823 0-8.77-3.947-8.77-8.77V228.57c0-4.824 3.946-8.77 8.77-8.77h45.9c4.825 0 8.772 3.946 8.772 8.77v23.94zm-80.983 64.814c0 4.824-3.947 8.77-8.77 8.77h-45.9c-4.826 0-8.772-3.946-8.772-8.77v-23.94c0-4.825 3.945-8.772 8.77-8.772h45.9c4.824 0 8.772 3.947 8.772 8.77v23.942zm80.983 0c0 4.824-3.946 8.77-8.77 8.77h-45.9c-4.823 0-8.77-3.946-8.77-8.77v-23.94c0-4.825 3.946-8.772 8.77-8.772h45.9c4.825 0 8.772 3.947 8.772 8.77v23.942z" fill="#5C6670"/><path d="M214.734 317.324c0 4.824 3.946 8.77 8.77 8.77h45.9c4.822 0 8.77-3.946 8.77-8.77V228.57c0-4.824-3.948-8.77-8.77-8.77h-45.9c-4.824 0-8.77 3.946-8.77 8.77v88.754z" fill="#FFA400"/><path d="M264.443 83.783l-4.907 4.51-4.91-4.51V45.15l4.91-4.51 4.907 4.51m-30.138 38.633l-4.91 4.51-4.903-4.51V45.15l4.904-4.51 4.91 4.51m1.854-1.103l-5.262-4.907 5.26-4.908h16.617l5.26 4.908-5.26 4.907M236.16 84.885l-5.262 4.908 5.26 4.908h16.617l5.26-4.906-5.26-4.908M214.734 83.783l-4.907 4.51-4.91-4.51V45.15l4.91-4.51 4.907 4.51m-30.14 38.633l-4.906 4.51-4.906-4.51V45.15l4.906-4.51 4.906 4.51m1.856-1.103l-5.26-4.907 5.26-4.908h16.614l5.26 4.908-5.26 4.907M186.45 84.885l-5.26 4.908 5.26 4.908h16.614l5.26-4.906-5.26-4.908M165.023 83.783l-4.907 4.51-4.908-4.51V45.15l4.908-4.51 4.907 4.51m-28.283-1.103l-5.262-4.907 5.26-4.908h16.617l5.26 4.908-5.26 4.907" fill="#FFF"/></svg>