<svg xmlns="http://www.w3.org/2000/svg" viewBox="0 0 324.473 324.473"><path d="M316.33 68.616c0-12.792-10.466-23.26-23.258-23.26H60.476c-12.793 0-23.26 10.468-23.26 23.26v232.596c0 12.793 10.467 23.26 23.26 23.26h232.596c12.793 0 23.26-10.467 23.26-23.26V68.616z" fill="#BFA070"/><path d="M287.257 68.616c0-12.792-10.467-23.26-23.26-23.26H31.4c-12.79 0-23.258 10.468-23.258 23.26v232.596c0 12.793 10.467 23.26 23.26 23.26h232.595c12.793 0 23.26-10.467 23.26-23.26V68.616z" fill="#DFCAA3"/><path fill="#DCDDDE" d="M43.03 80.246h209.337v209.337H43.03z"/><path fill="#D16A70" d="M43.03 80.246h209.337v51.17H43.03z"/><path fill="#FFF" d="M20.934 80.246H230.27v209.337H20.935z"/><path fill="#FF8189" d="M20.934 80.246H230.27v51.17H20.935z"/><path d="M89.59 252.447c-2.975-2.148-5.123-5.453-5.123-9.75 0-6.608 5.453-12.226 12.062-12.226 2.972 0 4.955.828 6.94 2.315 7.102 5.122 13.877 7.436 21.973 7.436 10.74 0 18.67-5.782 18.67-16.026v-.33c0-9.914-8.426-15.697-20.487-15.697-9.75 0-14.045 2.975-17.515 2.975-3.634 0-6.443-1.486-11.565-5.122-3.47-2.48-4.957-5.948-4.626-10.243l2.312-39.16c.33-6.113 5.123-10.905 11.236-10.905h50.228c6.114 0 11.236 5.122 11.236 11.236 0 6.113-5.122 11.07-11.236 11.07h-38.994l-1.322 19.993c4.627-1.157 8.757-1.983 15.2-1.983 22.803 0 40.482 10.904 40.482 37.012v.33c0 24.452-17.68 39.984-43.125 39.984-16.028 0-27.1-4.297-36.35-10.906z" fill="#333E48"/><path d="M85.38 0C51.4 0 23.755 27.643 23.755 61.624c0 16.458 6.41 31.935 18.048 43.574 2.27 2.272 5.247 3.407 8.225 3.407 2.974 0 5.95-1.136 8.22-3.406 4.543-4.543 4.544-11.906.003-16.448-7.246-7.248-11.236-16.882-11.236-27.13 0-21.153 17.21-38.362 38.363-38.362 15.34 0 28.6 9.055 34.733 22.098h24.695C137.653 19.248 113.728 0 85.378 0z" fill="#4C5B6B"/><path d="M159.577 0c-33.98 0-61.623 27.643-61.623 61.624 0 16.458 6.41 31.935 18.048 43.574 2.27 2.272 5.247 3.407 8.225 3.407 2.975 0 5.952-1.136 8.223-3.406 4.542-4.543 4.543-11.906.002-16.448-7.247-7.248-11.237-16.882-11.237-27.13 0-21.153 17.21-38.362 38.364-38.362 15.34 0 28.6 9.055 34.732 22.098h24.694C211.85 19.248 187.926 0 159.576 0z" fill="#3E4A57"/><path d="M233.774 0c-33.98 0-61.623 27.643-61.623 61.624 0 16.458 6.41 31.935 18.05 43.574 2.27 2.272 5.247 3.407 8.224 3.407 2.976 0 5.953-1.136 8.223-3.406 4.542-4.543 4.543-11.906 0-16.448-7.245-7.248-11.236-16.882-11.236-27.13 0-21.153 17.21-38.362 38.365-38.362 15.34 0 28.6 9.055 34.734 22.098h24.693C286.047 19.248 262.123 0 233.773 0z" fill="#4C5B6B"/></svg>