<svg xmlns="http://www.w3.org/2000/svg" viewBox="0 0 390.737 390.737"><path d="M176.77 372.137C79.14 372.137 0 292.995 0 195.367S79.142 18.6 176.77 18.6h37.198c97.627 0 176.77 79.142 176.77 176.77s-79.143 176.768-176.77 176.768h-37.2z" fill="#333E48"/><circle cx="176.769" cy="195.368" r="176.769" fill="#3E4A57"/><circle cx="176.769" cy="195.368" r="129.873" fill="#FFF"/><g fill="#A4A9AD"><circle cx="65.035" cy="195.368" r="10"/><circle cx="176.769" cy="83.635" r="9.999"/><circle cx="288.502" cy="195.368" r="9.999"/><circle cx="176.769" cy="307.102" r="9.999"/></g><path d="M112.785 263.51c-1.064 0-2.13-.405-2.94-1.217-1.625-1.624-1.625-4.258 0-5.882l63.982-63.98c1.625-1.626 4.258-1.626 5.883 0 1.624 1.622 1.624 4.257 0 5.88l-63.983 63.984c-.813.81-1.876 1.218-2.942 1.218z" fill="#FF8189"/><path d="M188.324 195.368c0 6.382-5.174 11.556-11.556 11.556s-11.556-5.174-11.556-11.556v-87.67c0-6.38 5.174-11.555 11.556-11.555s11.556 5.174 11.556 11.556v87.667z" fill="#333E48"/><path d="M176.77 206.924c-6.383 0-11.557-5.173-11.557-11.556s5.174-11.556 11.556-11.556h59.937c6.382 0 11.556 5.173 11.556 11.556s-5.174 11.556-11.556 11.556h-59.94z" fill="#333E48"/></svg>