<svg xmlns="http://www.w3.org/2000/svg" viewBox="0 0 356.744 356.744"><path d="M356.744 321.73c0 14.57-11.92 26.49-26.49 26.49H277.15c-14.57 0-26.493-11.92-26.493-26.49V141.99c0-14.57 11.92-26.492 26.49-26.492h53.105c14.57 0 26.49 11.922 26.49 26.49V321.73z" fill="#77B8E8"/><path d="M321.07 115.498H26.49C11.92 115.498 0 127.42 0 141.988V321.73c0 14.57 11.92 26.49 26.49 26.49h294.58c14.57 0 26.49-11.92 26.49-26.49V141.99c.002-14.57-11.92-26.492-26.49-26.492zM205.15 139.89h-62.74c-2.31 0-4.18-1.87-4.18-4.18 0-2.31 1.87-4.18 4.18-4.18h62.74c2.31 0 4.182 1.87 4.182 4.18 0 2.31-1.872 4.18-4.18 4.18z" fill="#009BDE"/><path fill="#FFF" d="M36.598 170.568h103.55v109.867H36.598z"/><circle cx="88.372" cy="213.757" r="25.366" fill="#3E4A57"/><path d="M88.372 248.16c-21.473 0-39.808 13.393-47.138 32.275h94.275c-7.33-18.883-25.664-32.275-47.14-32.275z" fill="#3E4A57"/><path fill="#333E48" d="M164.52 170.568h154.984v17.824H164.52zm0 37.11h154.984V225.5H164.52z"/><path fill="#F6C65B" d="M146.59 64.59h54.38v69.246h-54.38z"/><path d="M169.523 89.473c-22.355 0-40.476-18.12-40.476-40.476 0-22.353 18.12-40.475 40.476-40.475h8.517c22.356 0 40.476 18.122 40.476 40.475 0 22.354-18.12 40.476-40.476 40.476h-8.517z" fill="#333E48"/><circle cx="169.522" cy="48.998" r="40.475" fill="#3E4A57"/><circle cx="169.522" cy="48.998" r="22.574" fill="#A4A9AD"/><path fill="#FFF" d="M250.658 261.148h68.846v19.287h-68.846z"/></svg>